<svg xmlns="http://www.w3.org/2000/svg" viewBox="0 0 300 300"><defs><style>.cls-1{fill:#fff700;}.cls-2{fill:#0a0a0a;}</style></defs><g id="LOGOS"><rect class="cls-1" width="300" height="300" rx="70"/><path class="cls-2" d="M79.85,170.06a25.73,25.73,0,0,0,11.76-6.18,41.52,41.52,0,0,0,3.11-3.12,14.59,14.59,0,0,0,.84,1.88q1.84,3.35,5.19,2.89a5.14,5.14,0,0,0,3.82-2c.72-1.08,1.21-3,1.49-5.9a79.49,79.49,0,0,1,1.74-10.1,45.45,45.45,0,0,1,2.83-8.63q1.61-3.45,2.92-3.63c.65-.08,1,.34,1.16,1.28q.24,1.77.29,7.5a76.76,76.76,0,0,0,.42,9.81,14.53,14.53,0,0,0,2.36,6.55,4.72,4.72,0,0,0,4.74,2.19,5.35,5.35,0,0,0,3.91-2c.72-1.06,1.22-3,1.48-6A63.46,63.46,0,0,1,130,144a43.14,43.14,0,0,1,3.18-8.37c1.14-2.15,2.1-3.28,2.86-3.39s1,.35,1.16,1.28a46.47,46.47,0,0,1-.11,7.82,55,55,0,0,0,0,9q.66,4.93,3.3,7.23t7.13,1.69a17.19,17.19,0,0,0,9.51-4.33,33.61,33.61,0,0,0,3.38-3.55,16.09,16.09,0,0,0,4.7,4.3,15.73,15.73,0,0,0,9.24,2.09,16.45,16.45,0,0,0,11-5.1,22.25,22.25,0,0,0,6-12.3,44.16,44.16,0,0,0,6.86-1.21c0,.85,0,1.71,0,2.57q0,7.83,1.38,11.38t4.76,3.56a5.09,5.09,0,0,0,4-1.47q1.29-1.47,2.27-5.65a60.72,60.72,0,0,1,3.51-10.31,47.62,47.62,0,0,1,4.26-7.87c1.39-2,2.48-3,3.25-3s1,.47,1,1.42a80.81,80.81,0,0,1-1.06,9.07,89,89,0,0,0-1.24,11.74,6.68,6.68,0,0,0,1.34,4.53,5.4,5.4,0,0,0,4.26,1.51c2.08,0,3.58-.49,4.49-1.47s1.38-2.59,1.38-4.84a98.35,98.35,0,0,1,.53-10.81c.35-3.23.83-6.65,1.42-10.27a70.3,70.3,0,0,0,1-8.71,5.16,5.16,0,0,0-5.78-5.78,13,13,0,0,0-6.44,2,25.67,25.67,0,0,0-7.16,6.85,50.32,50.32,0,0,0-6.57,12.45,63.67,63.67,0,0,1,.88-6.58q.54-2.67,1.42-6.23a34.9,34.9,0,0,0,1.34-6.4,1.85,1.85,0,0,0-.72-1.69,5.07,5.07,0,0,0-2.49-.44,9.26,9.26,0,0,0-5.11,1.2,6.69,6.69,0,0,0-2.62,3.78,69.87,69.87,0,0,0-2.28,9.6,49.13,49.13,0,0,1-7.62,1.64,20,20,0,0,0-5.46-11.24,13.89,13.89,0,0,0-11.13-4.07,17.89,17.89,0,0,0-9.87,3.52,20.26,20.26,0,0,0-6.65,8.64A27.16,27.16,0,0,0,156.49,140a24.37,24.37,0,0,0,.34,2.88c-1,1.38-1.82,2.51-2.55,3.36-1.43,1.66-2.72,2.57-3.9,2.72-1.7.23-2.71-.82-3-3.18a61.68,61.68,0,0,1,.31-10.36q.74-9.24.27-12.68-.77-5.73-6.49-5-4.68.63-9.39,6.29t-7.66,17.08c0-1.08.15-2.71.33-4.88a56,56,0,0,0,.3-10.45,6.38,6.38,0,0,0-1.85-4.15c-1-.82-2.5-1.1-4.56-.82a12,12,0,0,0-6.25,3.22,26.93,26.93,0,0,0-5.83,8,48,48,0,0,0-4.12,12.4,62.26,62.26,0,0,1,0-6.6q.18-2.67.59-6.31a34.48,34.48,0,0,0,.47-6.53,1.85,1.85,0,0,0-.93-1.58,5,5,0,0,0-2.53-.1,9.22,9.22,0,0,0-4.91,1.87A6.71,6.71,0,0,0,93,129.34,71.79,71.79,0,0,0,92.5,150a30,30,0,0,1-5.44,6.42,19.26,19.26,0,0,1-8.25,4.77c-4,.93-7.09.24-9.15-2.09q9.65-4.86,13-10.14a14.36,14.36,0,0,0,1.92-11.25,11.14,11.14,0,0,0-4.89-7.41,11.27,11.27,0,0,0-8.75-1.13,18,18,0,0,0-9.4,5.35,21.17,21.17,0,0,0-5.09,9.8A25.88,25.88,0,0,0,56.45,156c.14.6.3,1.18.48,1.75-2.41,1.62-5.58,3.69-9.4,6s-5.23,3-6.18,2.43c-1.75-1-1-5.44-.22-9.43,4.6-24.6,5.27-29.62,2.63-34-.55-.92-3.17-5.14-7.52-5.57a9.23,9.23,0,0,0-8.24,4c-2.7,4.14.59,7.89,2.29,18.22,1,5.84,1,12,1,24.27,0,7.08-.33,11.41,2.68,13.74s7.71,1.17,8.17,1c3.12-.86,4.64-2.86,7.69-5.95a92.2,92.2,0,0,1,10.26-9,15,15,0,0,0,4.5,4.75C70.3,172.17,77.07,170.7,79.85,170.06Zm89.53-41.19a7,7,0,0,1,5.72-3.74l.44,0a16,16,0,0,0-.11,2.85,14.55,14.55,0,0,0,1.81,6.32,12.28,12.28,0,0,0,4.48,4.65,12.9,12.9,0,0,1-2.43,6.81,6.47,6.47,0,0,1-4.81,2.58,5.53,5.53,0,0,1-4.62-2.34q-2.06-2.46-2.31-7.35Q167.21,132.42,169.38,128.87ZM66.81,143c.91-2.82,2.42-4.48,4.56-5a3.24,3.24,0,0,1,2.7.43,3.83,3.83,0,0,1,1.52,2.43,7.35,7.35,0,0,1-1.65,6.31,20.16,20.16,0,0,1-7.22,5.49l0-.17A17.85,17.85,0,0,1,66.81,143Z"/><path class="cls-2" d="M230.9,176.2q-23.81-1-47.63.11-21.87,1-43.63,3.6-16.53,2-32.92,4.91c-7.42,1.34-14.81,2.82-22.15,4.52-3.73.86-7.52,1.63-11.18,2.76l-.13,0c-1.39.39-3.18,1.66-3.41,3.23s1.11,3.24,2.32,4.09A16.69,16.69,0,0,0,86,201.52l1.88-.5,2.25-.57,1.25-.3q10.22-2.4,20.54-4.3,15.69-2.94,31.55-4.94,9.57-1.23,19.18-2.13l10.32-.87,1.12-.09,2.1-.14c1.85-.12,3.7-.24,5.55-.34,15.57-.87,31.19-1.1,46.78-.6,2,.06,4,.14,6.06.22a11.2,11.2,0,0,0,6.22-1.5c1.18-.83,2.18-2.33,1.58-3.84C240.78,177.45,234.73,176.37,230.9,176.2Z"/><path class="cls-2" d="M267,131.64a21.37,21.37,0,0,0,7.73-5.65,12.37,12.37,0,0,0,2.65-7.22,10.4,10.4,0,0,0-4.17-9.1q-4.42-3.49-12-3.84-9.15-.42-14.66,3.38a13.22,13.22,0,0,0-5.84,10.9,12.86,12.86,0,0,0,1.35,6.34,14.67,14.67,0,0,0,4.61,5.32,21.5,21.5,0,0,0-7.73,5.61,11.68,11.68,0,0,0-2.63,6.91,10.84,10.84,0,0,0,4.4,9.64q4.69,3.6,13.3,4a28.63,28.63,0,0,0,10.84-1.37,16.4,16.4,0,0,0,7.39-4.91,12.64,12.64,0,0,0,2.88-7.7Q275.54,136.49,267,131.64Zm-5.48,16.57a12.91,12.91,0,0,1-6.64,1.12,11.08,11.08,0,0,1-5.84-1.65,4.35,4.35,0,0,1-2-4,6.57,6.57,0,0,1,1.8-4.19,15.73,15.73,0,0,1,5.86-3.56,35,35,0,0,1,7.48,4.61,5,5,0,0,1,1.92,3.83A4.38,4.38,0,0,1,261.56,148.21Zm3.13-24.6a22.24,22.24,0,0,1-6.54,3.88c-4.4-2.28-6.55-4.75-6.42-7.41a5.16,5.16,0,0,1,2.42-4.39,10.31,10.31,0,0,1,6-1.28q6.75.32,6.53,5.2A6,6,0,0,1,264.69,123.61Z"/></g></svg>